<svg id="Layer_1" data-name="Layer 1" xmlns="http://www.w3.org/2000/svg" viewBox="0 0 2413.94 703.06"><defs><style>.cls-1,.cls-2{fill:#231f20;}.cls-2{font-size:66.98px;font-family:GTEestiProDispTrialBold, GT Eesti Pro Display Trial;}</style></defs><title>Artboard 2</title><path class="cls-1" d="M299.17,281c0-142.72,104.32-233.6,245.76-233.6,69.76,0,121.6,22.4,160.64,49.92l-53.76,87c-28.8-19.2-63.36-34.56-106.88-34.56-78.08,0-136.32,49.92-136.32,131.2s58.24,131.2,136.32,131.2c43.52,0,78.08-15.36,106.88-34.56l53.76,87c-39,27.52-90.88,49.92-160.64,49.92C403.49,514.64,299.17,423.76,299.17,281Z"/><path class="cls-1" d="M839.33,505H742.69V57h96.64Z"/><path class="cls-1" d="M1184.92,358.48v21.76H973.08c6.4,37.12,35.84,53.76,75.52,53.76,35.84,0,67.2-14.72,85.76-26.88l35.2,73a230.08,230.08,0,0,1-122.24,34.56c-99.2,0-165.12-62.08-165.12-156.16,0-99.84,65.28-158.08,156.16-158.08C1127.32,200.4,1184.92,251.6,1184.92,358.48Zm-211.2-35.2h117.76c-1.28-34.56-25-54.4-56.32-54.4C1002.52,268.88,978.2,284.88,973.72,323.28Z"/><path class="cls-1" d="M1280.25,648.77l-1.13-86.92c52.92,4.84,13.37,4.79,97.47,4.32,48.64-.27,70.72-29.77,70.72-81.61v-19.2H1446c-17.28,23-47.36,44.8-97.28,44.8-77.44,0-139.52-51.2-139.52-153.6,0-103,63.36-156.8,140.16-156.8,48,0,78.08,19.84,96.64,49.92h1.28V209.36H1544V505c-.64,92.8-46,149.69-148.4,149.69C1364.83,654.73,1330.17,659,1280.25,648.77Zm164.5-291.57c0-42.24-29.44-69.12-68.48-69.12-38.4,0-67.84,26.88-67.84,69.12s29.44,69.12,67.84,69.12C1415.31,426.32,1444.75,399.44,1444.75,357.2Z"/><path class="cls-1" d="M1632.91,627.92l16-90.24c48.64,11.52,81.28,14.72,103.68,14.72,48.64,0,69.76-16,69.76-67.84v-19.2h-1.28c-17.28,23-47.36,44.8-97.28,44.8-77.44,0-139.52-51.2-139.52-153.6,0-103,63.36-156.8,140.16-156.8,48,0,78.08,19.84,96.64,49.92h1.28V209.36H1919V505c-.64,92.8-57,137.6-159.36,137.6C1728.91,642.64,1682.83,638.16,1632.91,627.92ZM1819.79,357.2c0-42.24-29.44-69.12-68.48-69.12-38.4,0-67.84,26.88-67.84,69.12s29.44,69.12,67.84,69.12C1790.35,426.32,1819.79,399.44,1819.79,357.2Z"/><text class="cls-2" transform="translate(351.31 628.83)">YOUR KITCHEN COMPANION</text></svg>